<?xml version="1.0" encoding="UTF-8" standalone="no"?>
<svg
   xmlns:dc="http://purl.org/dc/elements/1.1/"
   xmlns:cc="http://creativecommons.org/ns#"
   xmlns:rdf="http://www.w3.org/1999/02/22-rdf-syntax-ns#"
   xmlns:svg="http://www.w3.org/2000/svg"
   xmlns="http://www.w3.org/2000/svg"
   xmlns:sodipodi="http://sodipodi.sourceforge.net/DTD/sodipodi-0.dtd"
   xmlns:inkscape="http://www.inkscape.org/namespaces/inkscape"
   version="1.1"
   x="0px"
   y="0px"
   viewBox="0 0 100 100"
   enable-background="new 0 0 100 100"
   xml:space="preserve"
   id="svg2"
   inkscape:version="0.91 r13725"
   sodipodi:docname="noun_89667.svg"
   inkscape:export-filename="/home/martin/Desktop/noun_89667.svg.png"
   inkscape:export-xdpi="90"
   inkscape:export-ydpi="90"><metadata
     id="metadata10"><rdf:RDF><cc:Work
         rdf:about=""><dc:format>image/svg+xml</dc:format><dc:type
           rdf:resource="http://purl.org/dc/dcmitype/StillImage" /></cc:Work></rdf:RDF></metadata><defs
     id="defs8" /><sodipodi:namedview
     pagecolor="#ffffff"
     bordercolor="#666666"
     borderopacity="1"
     objecttolerance="10"
     gridtolerance="10"
     guidetolerance="10"
     inkscape:pageopacity="0"
     inkscape:pageshadow="2"
     inkscape:window-width="1863"
     inkscape:window-height="1056"
     id="namedview6"
     showgrid="false"
     inkscape:zoom="2.36"
     inkscape:cx="108.26271"
     inkscape:cy="100.84746"
     inkscape:window-x="57"
     inkscape:window-y="24"
     inkscape:window-maximized="1"
     inkscape:current-layer="svg2" /><path
     d="M50,5C25.2,5,5,25.1,5,50c0,24.8,20.2,45,45,45c24.9,0,45-20.2,45-45C95,25.1,74.9,5,50,5L50,5z M35.5,68.8  c-6.7,1.1-13.9-2.6-15.6-11.9c-1.8-13.3,8-24.4,22.5-26c0.5,0,0.6,0.4,0.6,0.4l0.7,4.1c0,0,0,0.5-0.4,0.6c-4.2,1.3-7.7,3.3-9,8.5  c5.7,0.3,10.6,4.5,11.6,10.4C46.7,61.6,42.2,67.8,35.5,68.8L35.5,68.8z M70,68.8c-6.7,1.1-13.9-2.6-15.7-11.9  c-1.7-13.3,8-24.4,22.5-26c0.5,0,0.6,0.4,0.6,0.4l0.7,4.1c0,0,0,0.5-0.4,0.6c-4.2,1.3-7.7,3.3-9.1,8.5c5.7,0.3,10.6,4.5,11.6,10.4  C81.3,61.6,76.7,67.8,70,68.8z"
     id="path4"
     style="fill:#db6a26;fill-opacity:1" /></svg>